<svg id="calogo" xmlns="http://www.w3.org/2000/svg" viewBox="0 0 500 500">
  <title>lettering-noto</title>
  <g id="logo">
    <g id="lettering">
      <polygon points="103.71 231.3 103.04 229.58 102.37 227.86 101.7 226.14 101.03 224.42 100.94 224.42 100.85 224.42 100.76 224.42 100.67 224.42 98.92 226.45 97.14 228.14 95.33 229.49 93.5 230.51 91.51 231.25 89.25 231.78 86.7 232.1 83.88 232.21 80.42 231.94 77.36 231.16 74.69 229.86 72.4 228.04 70.57 225.74 69.26 222.99 68.47 219.81 68.21 216.18 68.56 212.41 69.62 209.18 71.38 206.47 73.85 204.29 77.02 202.59 80.92 201.32 85.52 200.48 90.85 200.06 93.04 199.99 95.24 199.92 97.44 199.86 99.63 199.79 99.63 199.23 99.63 198.68 99.63 198.13 99.63 197.57 99.14 194.2 97.66 191.8 95.2 190.35 91.75 189.87 88.59 190.1 85.15 190.79 81.46 191.94 77.49 193.54 76.35 191.21 75.2 188.88 74.06 186.54 72.92 184.21 77.41 182.21 82.13 180.78 87.1 179.93 92.3 179.64 97.09 179.92 101.3 180.75 104.9 182.14 107.92 184.08 110.29 186.59 111.99 189.67 113.01 193.33 113.35 197.57 113.35 206 113.35 214.44 113.35 222.87 113.35 231.3 110.94 231.3 108.53 231.3 106.12 231.3 103.71 231.3 103.71 231.3"/>
      <polygon points="154.46 221.2 156.36 221.1 158.44 220.81 160.7 220.31 163.15 219.62 163.15 222.19 163.15 224.76 163.15 227.33 163.15 229.9 160.42 230.91 157.4 231.63 154.08 232.06 150.47 232.21 146.61 231.94 143.31 231.16 140.58 229.85 138.41 228.02 136.75 225.66 135.57 222.78 134.86 219.38 134.62 215.45 134.62 209.35 134.62 203.25 134.62 197.15 134.62 191.05 132.97 191.05 131.32 191.05 129.67 191.05 128.01 191.05 128.01 189.59 128.01 188.13 128.01 186.67 128.01 185.21 129.91 184.06 131.82 182.9 133.72 181.75 135.62 180.59 136.62 177.92 137.61 175.25 138.61 172.58 139.6 169.91 141.81 169.91 144.02 169.91 146.23 169.91 148.43 169.91 148.43 172.6 148.43 175.29 148.43 177.99 148.43 180.68 151.98 180.68 155.52 180.68 159.06 180.68 162.6 180.68 162.6 183.27 162.6 185.87 162.6 188.46 162.6 191.05 159.06 191.05 155.52 191.05 151.98 191.05 148.43 191.05 148.43 197.15 148.43 203.25 148.43 209.35 148.43 215.45 148.54 216.83 148.85 218.01 149.36 219 150.09 219.8 150.98 220.41 152 220.85 153.16 221.12 154.46 221.2 154.46 221.2"/>
      <polygon points="192.75 231.3 189.3 231.3 185.85 231.3 182.4 231.3 178.94 231.3 178.94 213.69 178.94 196.08 178.94 178.46 178.94 160.85 182.4 160.85 185.85 160.85 189.3 160.85 192.75 160.85 192.75 178.46 192.75 196.08 192.75 213.69 192.75 231.3 192.75 231.3"/>
      <polygon points="244.95 231.3 244.28 229.58 243.61 227.86 242.95 226.14 242.28 224.42 242.19 224.42 242.1 224.42 242.01 224.42 241.92 224.42 240.16 226.45 238.38 228.14 236.57 229.49 234.74 230.51 232.75 231.25 230.49 231.78 227.94 232.1 225.12 232.21 221.67 231.94 218.6 231.16 215.93 229.86 213.64 228.04 211.81 225.74 210.5 222.99 209.72 219.81 209.45 216.18 209.81 212.41 210.86 209.18 212.62 206.47 215.09 204.29 218.27 202.59 222.16 201.32 226.77 200.48 232.09 200.06 234.29 199.99 236.48 199.92 238.68 199.86 240.88 199.79 240.88 199.23 240.88 198.68 240.88 198.13 240.88 197.57 240.38 194.2 238.91 191.8 236.44 190.35 233 189.87 229.83 190.1 226.4 190.79 222.7 191.94 218.74 193.54 217.59 191.21 216.45 188.88 215.31 186.54 214.16 184.21 218.65 182.21 223.38 180.78 228.34 179.93 233.54 179.64 238.34 179.92 242.54 180.75 246.15 182.14 249.16 184.08 251.54 186.59 253.24 189.67 254.25 193.33 254.59 197.57 254.59 206 254.59 214.44 254.59 222.87 254.59 231.3 252.18 231.3 249.77 231.3 247.36 231.3 244.95 231.3 244.95 231.3"/>
      <polygon points="321.1 231.3 317.64 231.3 314.19 231.3 310.74 231.3 307.29 231.3 307.29 223.91 307.29 216.52 307.29 209.13 307.29 201.74 307.17 199.17 306.8 196.94 306.19 195.06 305.34 193.52 304.22 192.32 302.82 191.46 301.12 190.95 299.14 190.78 296.44 191.02 294.15 191.75 292.25 192.96 290.76 194.65 289.63 196.9 288.83 199.79 288.34 203.32 288.18 207.49 288.18 213.44 288.18 219.39 288.18 225.35 288.18 231.3 284.73 231.3 281.28 231.3 277.82 231.3 274.37 231.3 274.37 218.65 274.37 205.99 274.37 193.34 274.37 180.68 277.01 180.68 279.65 180.68 282.29 180.68 284.92 180.68 285.39 182.3 285.85 183.92 286.31 185.54 286.78 187.16 286.97 187.16 287.16 187.16 287.36 187.16 287.55 187.16 288.81 185.44 290.29 183.94 291.99 182.66 293.91 181.61 296 180.79 298.24 180.2 300.61 179.85 303.12 179.73 307.27 180.03 310.89 180.93 313.97 182.42 316.52 184.51 318.52 187.16 319.95 190.34 320.81 194.05 321.1 198.29 321.1 206.55 321.1 214.8 321.1 223.05 321.1 231.3 321.1 231.3"/>
      <polygon points="362.2 221.2 364.1 221.1 366.19 220.81 368.45 220.31 370.89 219.62 370.89 222.19 370.89 224.76 370.89 227.33 370.89 229.9 368.17 230.91 365.14 231.63 361.83 232.06 358.22 232.21 354.36 231.94 351.06 231.16 348.32 229.85 346.15 228.02 344.5 225.66 343.32 222.78 342.61 219.38 342.37 215.45 342.37 209.35 342.37 203.25 342.37 197.15 342.37 191.05 340.72 191.05 339.07 191.05 337.41 191.05 335.76 191.05 335.76 189.59 335.76 188.13 335.76 186.67 335.76 185.21 337.66 184.06 339.56 182.9 341.46 181.75 343.37 180.59 344.36 177.92 345.36 175.25 346.36 172.58 347.35 169.91 349.56 169.91 351.77 169.91 353.97 169.91 356.18 169.91 356.18 172.6 356.18 175.29 356.18 177.99 356.18 180.68 359.72 180.68 363.27 180.68 366.81 180.68 370.35 180.68 370.35 183.27 370.35 185.87 370.35 188.46 370.35 191.05 366.81 191.05 363.27 191.05 359.72 191.05 356.18 191.05 356.18 197.15 356.18 203.25 356.18 209.35 356.18 215.45 356.28 216.83 356.59 218.01 357.11 219 357.83 219.8 358.73 220.41 359.75 220.85 360.91 221.12 362.2 221.2 362.2 221.2"/>
      <polygon points="409.6 232.21 403.82 231.78 398.71 230.52 394.27 228.41 390.49 225.46 387.48 221.74 385.33 217.31 384.04 212.18 383.61 206.35 384.01 200.35 385.2 195.07 387.19 190.52 389.97 186.68 393.46 183.64 397.55 181.47 402.25 180.17 407.56 179.73 412.63 180.11 417.11 181.26 420.99 183.17 424.27 185.84 426.88 189.19 428.75 193.12 429.87 197.63 430.25 202.73 430.25 204.41 430.25 206.08 430.25 207.76 430.25 209.43 422.08 209.43 413.92 209.43 405.76 209.43 397.6 209.43 397.9 212.21 398.59 214.67 399.65 216.81 401.09 218.62 402.88 220.07 405 221.1 407.45 221.72 410.23 221.93 412.49 221.87 414.68 221.69 416.81 221.39 418.88 220.98 420.94 220.43 423.05 219.74 425.2 218.91 427.39 217.94 427.39 220.62 427.39 223.29 427.39 225.96 427.39 228.63 425.55 229.48 423.65 230.21 421.68 230.82 419.65 231.32 417.48 231.71 415.08 231.99 412.45 232.15 409.6 232.21 409.6 232.21"/>
      <polygon points="94.7 325.44 84.36 323.82 76.97 318.96 72.54 310.85 71.06 299.5 71.46 293.43 72.67 288.12 74.68 283.57 77.49 279.79 81.05 276.8 85.31 274.68 90.27 273.4 95.92 272.97 100.2 273.19 104.25 273.83 108.08 274.91 111.67 276.41 110.66 279.08 109.64 281.75 108.62 284.43 107.6 287.1 106 286.47 104.45 285.9 102.97 285.39 101.53 284.95 100.13 284.58 98.73 284.32 97.32 284.16 95.92 284.11 91.2 285.06 87.84 287.94 85.82 292.72 85.14 299.41 85.82 305.91 87.84 310.55 91.2 313.33 95.92 314.26 97.87 314.2 99.76 314 101.56 313.66 103.3 313.2 105 312.59 106.69 311.83 108.39 310.93 110.09 309.87 110.09 312.82 110.09 315.78 110.09 318.73 110.09 321.69 108.41 322.67 106.72 323.49 105.03 324.14 103.32 324.63 101.5 324.99 99.46 325.24 97.19 325.39 94.7 325.44 94.7 325.44"/>
      <polygon points="159.53 324.54 158.86 322.82 158.19 321.1 157.52 319.38 156.85 317.66 156.76 317.66 156.67 317.66 156.58 317.66 156.49 317.66 154.74 319.69 152.96 321.38 151.15 322.73 149.32 323.75 147.33 324.49 145.06 325.02 142.52 325.34 139.69 325.44 136.24 325.19 133.18 324.4 130.5 323.1 128.22 321.28 126.39 318.98 125.08 316.23 124.29 313.05 124.03 309.42 124.38 305.65 125.44 302.42 127.2 299.71 129.67 297.53 132.84 295.83 136.74 294.56 141.34 293.72 146.67 293.3 148.86 293.23 151.06 293.16 153.25 293.1 155.45 293.03 155.45 292.47 155.45 291.92 155.45 291.36 155.45 290.81 154.96 287.44 153.48 285.04 151.02 283.59 147.57 283.11 144.41 283.34 140.97 284.03 137.28 285.18 133.31 286.78 132.17 284.45 131.02 282.12 129.88 279.79 128.74 277.45 133.23 275.45 137.95 274.02 142.91 273.17 148.12 272.88 152.91 273.16 157.12 273.99 160.72 275.38 163.74 277.32 166.11 279.82 167.81 282.91 168.83 286.57 169.17 290.81 169.17 299.24 169.17 307.68 169.17 316.11 169.17 324.54 166.76 324.54 164.35 324.54 161.94 324.54 159.53 324.54 159.53 324.54"/>
      <polygon points="202.76 324.54 199.31 324.54 195.85 324.54 192.4 324.54 188.95 324.54 188.95 306.93 188.95 289.31 188.95 271.7 188.95 254.09 192.4 254.09 195.85 254.09 199.31 254.09 202.76 254.09 202.76 271.7 202.76 289.31 202.76 306.93 202.76 324.54 202.76 324.54"/>
      <polygon points="234.85 324.54 230.03 311.88 225.21 299.23 220.39 286.58 215.56 273.92 219.18 273.92 222.79 273.92 226.4 273.92 230.01 273.92 232.45 281.13 234.9 288.34 237.34 295.55 239.79 302.76 240.47 305.18 241.02 307.71 241.44 310.36 241.74 313.13 241.82 313.13 241.92 313.13 242.01 313.13 242.1 313.13 242.33 310.56 242.74 307.98 243.34 305.38 244.13 302.76 246.57 295.55 249 288.34 251.44 281.13 253.87 273.92 257.48 273.92 261.09 273.92 264.7 273.92 268.31 273.92 263.49 286.58 258.67 299.23 253.85 311.88 249.02 324.54 245.48 324.54 241.94 324.54 238.4 324.54 234.85 324.54 234.85 324.54"/>
      <polygon points="280.53 260.84 281 257.89 282.41 255.78 284.76 254.51 288.05 254.09 291.33 254.51 293.68 255.78 295.09 257.89 295.56 260.84 295.44 262.36 295.09 263.69 294.5 264.86 293.68 265.84 292.63 266.62 291.33 267.18 289.81 267.52 288.05 267.63 284.76 267.2 282.41 265.93 281 263.81 280.53 260.84 280.53 260.84"/>
      <polygon points="294.93 324.54 291.48 324.54 288.02 324.54 284.57 324.54 281.12 324.54 281.12 311.88 281.12 299.23 281.12 286.58 281.12 273.92 284.57 273.92 288.02 273.92 291.48 273.92 294.93 273.92 294.93 286.58 294.93 299.23 294.93 311.88 294.93 324.54 294.93 324.54"/>
      <polygon points="361.7 324.54 358.25 324.54 354.8 324.54 351.35 324.54 347.89 324.54 347.89 317.15 347.89 309.76 347.89 302.37 347.89 294.98 347.77 292.41 347.41 290.18 346.8 288.3 345.95 286.76 344.83 285.56 343.42 284.7 341.73 284.19 339.75 284.02 337.05 284.26 334.75 284.99 332.86 286.2 331.37 287.89 330.24 290.14 329.43 293.03 328.95 296.56 328.79 300.73 328.79 306.68 328.79 312.63 328.79 318.59 328.79 324.54 325.34 324.54 321.88 324.54 318.43 324.54 314.98 324.54 314.98 311.88 314.98 299.23 314.98 286.58 314.98 273.92 317.62 273.92 320.25 273.92 322.89 273.92 325.53 273.92 325.99 275.54 326.46 277.16 326.92 278.78 327.38 280.4 327.58 280.4 327.77 280.4 327.96 280.4 328.15 280.4 329.42 278.67 330.9 277.18 332.6 275.9 334.51 274.85 336.61 274.03 338.85 273.44 341.22 273.09 343.73 272.97 347.88 273.27 351.49 274.17 354.58 275.66 357.13 277.75 359.13 280.4 360.56 283.58 361.42 287.29 361.7 291.53 361.7 299.79 361.7 308.04 361.7 316.29 361.7 324.54 361.7 324.54"/>
      <polygon points="427.48 299.14 427.08 304.98 425.85 310.15 423.82 314.65 420.96 318.47 417.38 321.52 413.17 323.7 408.31 325.01 402.81 325.44 399.27 325.25 395.95 324.65 392.84 323.65 389.95 322.25 387.33 320.48 385.03 318.37 383.05 315.9 381.39 313.08 380.08 309.97 379.15 306.61 378.59 303 378.4 299.14 378.81 293.28 380.02 288.12 382.05 283.64 384.88 279.85 388.44 276.84 392.67 274.69 397.55 273.4 403.08 272.97 406.62 273.17 409.94 273.76 413.05 274.75 415.94 276.14 418.56 277.9 420.86 280 422.84 282.45 424.5 285.24 425.8 288.33 426.74 291.68 427.3 295.28 427.48 299.14 427.48 299.14"/>
    </g>
  </g>
</svg>
