<svg id="calogo" xmlns="http://www.w3.org/2000/svg" viewBox="0 0 500 500">
  <title>lettering-noto-caps</title>
  <g id="logo-caps">
    <g id="fatlettering">
      <polygon points="111.6 238.8 110.2 237.8 107.1 227.4 91.7 227.4 88.6 237.8 87.2 238.8 76.3 238.8 75 236.9 91.8 188.9 93.2 188 105.6 188 106.9 188.9 123.8 236.9 122.5 238.8 111.6 238.8"/>
      <polygon points="142.6 238.8 141.1 237.4 141.1 199.4 129.6 199.4 128.2 198 128.2 189.6 129.6 188.2 165.7 188.2 167.1 189.6 167.1 198 165.7 199.4 154.1 199.4 154.1 237.4 152.7 238.8 142.6 238.8"/>
      <polygon points="181.1 238.8 179.6 237.4 179.6 189.6 181.1 188.2 191.2 188.2 192.6 189.6 192.6 227.6 210.6 227.6 212 229 212 237.4 210.6 238.8 181.1 238.8"/>
      <polygon points="256.2 238.8 254.8 237.8 251.7 227.4 236.3 227.4 233.2 237.8 231.8 238.8 220.9 238.8 219.6 236.9 236.4 188.9 237.8 188 250.2 188 251.5 188.9 268.4 236.9 267.1 238.8 256.2 238.8"/>
      <polygon points="310.7 238.8 309.4 238.1 291.2 206.4 291.6 214.8 291.6 237.4 290.2 238.8 281.1 238.8 279.7 237.4 279.7 189.6 281.1 188.2 293.9 188.2 295.1 188.9 313.3 220.2 313 212.2 313 189.6 314.4 188.2 323.5 188.2 325 189.6 325 237.4 323.5 238.8 310.7 238.8"/>
      <polygon points="351.9 238.8 350.5 237.4 350.5 199.4 338.9 199.4 337.5 198 337.5 189.6 338.9 188.2 375 188.2 376.4 189.6 376.4 198 375 199.4 363.5 199.4 363.5 237.4 362 238.8 351.9 238.8"/>
      <polygon points="390.4 238.8 389 237.4 389 189.6 390.4 188.2 417.9 188.2 419.4 189.6 419.4 197.9 417.9 199.3 402 199.3 402 207 416.7 207 418.1 208.4 418.1 216.7 416.7 218.1 402 218.1 402 227.6 417.9 227.6 419.4 229 419.4 237.4 417.9 238.8 390.4 238.8"/>
      <polygon points="94.2 301.4 93.9 301.4 89.1 300.1 88.8 300 85.2 298 84.9 297.8 81.8 295 81.6 294.8 79.2 291.3 79 291 77.3 286.8 77.2 286.6 76.2 281.7 76.2 281.5 75.8 275.9 75.8 275.7 76.5 268.7 76.6 268.4 78.6 262.3 78.8 262 82.1 257 82.4 256.7 86.9 253.1 87.2 252.9 92.7 250.6 93.1 250.5 99.5 249.8 99.8 249.8 106.8 250.6 107.1 250.7 114.1 253.2 115 255.1 111.7 263.3 109.8 264.1 107.1 262.9 104.6 261.9 102.1 261.3 99.7 261.1 95.2 262 92 264.8 89.8 269.5 89.1 275.9 89.7 282.1 91.8 287 95 289.6 99.7 290.4 105 289.9 111.5 288 113.3 289.4 113.3 297.9 112.3 299.2 106 301.1 105.8 301.1 98.8 301.7 98.6 301.7 94.2 301.4"/>
      <polygon points="159.3 301.1 158 300.1 154.8 289.7 139.5 289.7 136.3 300.1 135 301.1 124 301.1 122.7 299.2 139.6 251.2 140.9 250.3 153.3 250.3 154.6 251.2 171.6 299.2 170.2 301.1 159.3 301.1"/>
      <polygon points="184.3 301.1 182.9 299.7 182.9 251.9 184.3 250.5 194.4 250.5 195.8 251.9 195.8 289.9 213.8 289.9 215.2 291.3 215.2 299.7 213.8 301.1 184.3 301.1"/>
      <polygon points="239.7 301.1 238.3 300.1 222.1 252.3 223.5 250.5 233.7 250.5 235.1 251.5 244 279.9 245.3 284.5 246.3 280 246.3 279.9 255.4 251.5 256.7 250.5 267 250.5 268.3 252.3 252.1 300.1 250.7 301.1 239.7 301.1"/>
      <polygon points="277.2 301.1 275.8 299.7 275.8 293.9 276.6 292.6 281.6 290.3 281.6 261.2 276.6 258.9 275.8 257.6 275.8 251.9 277.2 250.5 298.9 250.5 300.3 251.9 300.3 257.6 299.5 258.9 294.5 261.2 294.5 290.3 299.5 292.6 300.3 293.9 300.3 299.7 298.9 301.1 277.2 301.1"/>
      <polygon points="344.6 301.1 343.4 300.4 325.2 268.7 325.6 277.1 325.6 299.7 324.2 301.1 315.1 301.1 313.7 299.7 313.7 251.9 315.1 250.5 327.9 250.5 329.1 251.2 347.3 282.5 347 274.5 347 251.9 348.4 250.5 357.5 250.5 358.9 251.9 358.9 299.7 357.5 301.1 344.6 301.1"/>
      <polygon points="398 301.7 388.3 300.1 387.7 299.9 380.6 295.1 380.1 294.6 375.7 286.9 375.5 286.4 374.1 275.8 374.1 275.4 375.5 264.9 375.7 264.4 380.1 256.7 380.6 256.2 387.8 251.5 388.3 251.3 398 249.7 398.5 249.7 408.2 251.3 408.8 251.5 415.9 256.3 416.4 256.8 420.7 264.5 420.9 265 422.4 275.5 422.4 275.9 420.9 286.4 420.7 286.9 416.3 294.6 415.9 295.1 408.7 299.9 408.1 300.1 398.4 301.7 398 301.7"/>
      <polygon points="105.7 217.5 100.3 200 99.4 196.8 93.2 217.5 105.7 217.5 105.7 217.5"/>
      <polygon points="250.3 217.5 244.9 200 244 196.8 237.8 217.5 250.3 217.5 250.3 217.5"/>
      <polygon points="153.4 279.8 148 262.3 147.2 259.1 141 279.8 153.4 279.8 153.4 279.8"/>
      <polygon points="386.1 275.7 386.8 282.7 389.1 287.8 392.9 290.8 398.2 291.8 403.5 290.8 407.3 287.8 409.7 282.2 410.3 275.7 409.7 269 407.3 263.6 398.3 259.6 393 260.6 389.2 263.6 386.8 268.7 386.1 275.7 386.1 275.7"/>
    </g>
    <g id="lettering">
      <polygon points="111.6 237.4 108.1 226 90.7 226 87.2 237.4 76.3 237.4 93.2 189.4 105.6 189.4 122.5 237.4 111.6 237.4 111.6 237.4"/>
      <polygon points="105.7 217.5 100.3 200 99.4 196.8 93.2 217.5 105.7 217.5 105.7 217.5"/>
      <polygon points="152.7 237.4 142.6 237.4 142.6 198 129.6 198 129.6 189.6 165.7 189.6 165.7 198 152.7 198 152.7 237.4 152.7 237.4"/>
      <polygon points="181.1 237.4 181.1 189.6 191.2 189.6 191.2 229 210.6 229 210.6 237.4 181.1 237.4 181.1 237.4"/>
      <polygon points="256.2 237.4 252.7 226 235.3 226 231.8 237.4 220.9 237.4 237.8 189.4 250.2 189.4 267.1 237.4 256.2 237.4 256.2 237.4"/>
      <polygon points="250.3 217.5 244.9 200 244 196.8 237.8 217.5 250.3 217.5 250.3 217.5"/>
      <polygon points="323.5 237.4 310.7 237.4 289.9 201.2 289.6 201.2 290.2 214.9 290.2 237.4 281.1 237.4 281.1 189.6 293.9 189.6 314.7 225.4 314.9 225.4 314.4 212.2 314.4 189.6 323.5 189.6 323.5 237.4 323.5 237.4"/>
      <polygon points="362 237.4 351.9 237.4 351.9 198 338.9 198 338.9 189.6 375 189.6 375 198 362 198 362 237.4 362 237.4"/>
      <polygon points="417.9 237.4 390.4 237.4 390.4 189.6 417.9 189.6 417.9 197.9 400.5 197.9 400.5 208.4 416.7 208.4 416.7 216.7 400.5 216.7 400.5 229 417.9 229 417.9 237.4 417.9 237.4"/>
      <polygon points="99.7 259.6 94.6 260.7 90.8 263.9 88.4 269.1 87.7 275.9 88.3 282.4 90.7 287.9 94.4 290.9 99.7 291.9 105.2 291.2 111.9 289.4 111.9 297.9 105.6 299.7 98.7 300.3 94.3 300 89.5 298.7 85.8 296.8 82.8 294 80.3 290.5 78.6 286.3 77.6 281.4 77.2 275.8 77.9 268.8 79.9 262.8 83.3 257.8 87.7 254.2 93.3 251.9 99.7 251.2 106.6 252 113.7 254.6 110.4 262.8 107.7 261.6 105 260.6 102.3 259.9 99.7 259.6 99.7 259.6"/>
      <polygon points="159.3 299.7 155.8 288.3 138.4 288.3 135 299.7 124 299.7 140.9 251.7 153.3 251.7 170.2 299.7 159.3 299.7 159.3 299.7"/>
      <polygon points="153.4 279.8 148 262.3 147.2 259.1 141 279.8 153.4 279.8 153.4 279.8"/>
      <polygon points="184.3 299.7 184.3 251.9 194.4 251.9 194.4 291.3 213.8 291.3 213.8 299.7 184.3 299.7 184.3 299.7"/>
      <polygon points="256.7 251.9 267 251.9 250.7 299.7 239.7 299.7 223.5 251.9 233.7 251.9 242.7 280.3 244.2 286.2 245.2 290.8 247.7 280.3 256.7 251.9 256.7 251.9"/>
      <polygon points="298.9 299.7 277.2 299.7 277.2 293.9 283 291.2 283 260.3 277.2 257.6 277.2 251.9 298.9 251.9 298.9 257.6 293.1 260.3 293.1 291.2 298.9 293.9 298.9 299.7 298.9 299.7"/>
      <polygon points="357.5 299.7 344.6 299.7 323.8 263.5 323.6 263.5 324.2 277.2 324.2 299.7 315.1 299.7 315.1 251.9 327.9 251.9 348.7 287.7 348.9 287.7 348.4 274.5 348.4 251.9 357.5 251.9 357.5 299.7 357.5 299.7"/>
      <polygon points="421 275.7 419.5 286.2 415.1 293.9 407.9 298.7 398.2 300.3 388.5 298.7 381.3 293.9 376.9 286.2 375.5 275.6 376.9 265.1 381.4 257.4 388.5 252.7 398.3 251.1 408 252.7 415.1 257.5 419.5 265.2 421 275.7 421 275.7"/>
      <polygon points="386.1 275.7 386.8 282.7 389.1 287.8 392.9 290.8 398.2 291.8 403.5 290.8 407.3 287.8 409.7 282.2 410.3 275.7 409.7 269 407.3 263.6 398.3 259.6 393 260.6 389.2 263.6 386.8 268.7 386.1 275.7 386.1 275.7"/>
    </g>
  </g>
</svg>
