<svg id="calogo" xmlns="http://www.w3.org/2000/svg" viewBox="0 0 1013.02 1067.79">
  <defs>
    <style>
      .cls-1 {
        font-size: 101.48px;
        font-family: Roboto;
        font-weight: 700;
        letter-spacing: 8px;
      }
    </style>
  </defs>
  <title>lettering2</title>
  <polygon points="78.59 42.97 77.14 47.32 76.73 48.76 76.52 50.2 76.72 51.07 77.24 51.67 77.96 52.03 78.81 52.15 80.94 52.15 80.94 54.84 67.79 54.84 67.79 52.15 68.4 52.15 69.63 52 70.66 51.45 71.57 50.33 72.45 48.48 83.4 18.77 90.34 18.77 100.9 48.52 101.67 50.29 102.56 51.4 103.58 51.98 104.72 52.15 105.63 52.15 105.63 54.84 88.95 54.84 88.95 52.15 90.93 52.15 91.69 52.04 92.4 51.7 92.9 51.09 93.1 50.2 92.95 49.02 92.66 48.03 90.88 42.97 78.59 42.97 78.59 42.97"/>
  <polygon points="125.23 51.48 127.12 51.34 128.81 51.01 128.81 54.29 127.74 54.71 126.16 55.11 124.12 55.42 121.66 55.55 118.57 55.14 116.23 53.78 114.75 51.31 114.23 47.58 114.23 31.42 110.43 31.42 110.43 28.83 113.34 28.18 115.39 26.7 117.71 21.7 121.9 21.7 121.9 27.96 128.37 27.96 128.37 31.42 121.9 31.42 121.9 47.06 122.68 50.41 125.23 51.48 125.23 51.48"/>
  <polygon points="132.94 116.5 134.65 116.34 136.31 115.68 137.58 114.28 138.09 111.81 138.09 8.21 137.58 5.9 136.29 4.56 134.62 3.95 132.94 3.81 132.1 3.81 132.1 0 149.05 0 149.05 111.81 149.56 114.28 150.83 115.68 152.5 116.34 154.2 116.5 155.04 116.5 155.04 120.34 132.1 120.34 132.1 116.5 132.94 116.5 132.94 116.5"/>
  <polygon points="170.17 30.41 168.55 30.81 167.5 31.95 166.95 33.67 166.79 35.86 161.67 35.09 159.96 32.48 160.78 30.11 163.03 28.51 166.33 27.61 170.37 27.32 175.02 27.78 178.32 29.25 180.31 31.9 180.98 35.91 180.98 48.79 181.14 50.51 181.64 51.61 182.58 52.19 184.01 52.36 184.21 52.36 184.21 55.05 174.81 55.05 173.75 51.57 173.3 51.57 171.72 53.34 170.15 54.58 168.26 55.31 165.78 55.55 162.66 55.05 160.14 53.53 158.45 50.97 157.83 47.33 160.66 41.24 169.16 39.09 173.3 38.94 173.3 36.15 173.2 33.84 172.78 32.01 171.84 30.82 170.17 30.41 170.17 30.41"/>
  <polygon points="211.75 54.84 211.75 38.21 211.54 35.31 210.84 33.18 209.59 31.86 207.7 31.4 205.6 32.04 204.26 33.76 203.53 36.25 203.31 39.22 203.31 48.87 203.57 50.57 204.29 51.57 205.44 52.04 206.96 52.15 207.11 52.15 207.11 54.84 191.59 54.84 191.59 52.15 191.69 52.15 193.27 52.04 194.51 51.56 195.34 50.5 195.64 48.67 195.64 33.72 195.38 32.02 194.64 31.02 193.49 30.55 191.98 30.44 191.84 30.44 191.84 27.75 202.44 27.75 203.11 31.35 203.36 31.35 204.97 29.08 206.79 27.8 208.82 27.23 211.08 27.11 214.58 27.68 217.21 29.43 218.85 32.45 219.42 36.85 219.42 48.57 219.63 50.46 220.26 51.53 221.32 52.03 222.82 52.15 222.97 52.15 222.97 54.84 211.75 54.84 211.75 54.84"/>
  <polygon points="242.44 51.48 244.33 51.34 246.02 51.01 246.02 54.29 244.94 54.71 243.37 55.11 241.33 55.42 238.86 55.55 235.78 55.14 233.44 53.78 231.96 51.31 231.44 47.58 231.44 31.42 227.64 31.42 227.64 28.83 230.55 28.18 232.6 26.7 234.92 21.7 239.11 21.7 239.11 27.96 245.57 27.96 245.57 31.42 239.11 31.42 239.11 47.06 239.89 50.41 242.44 51.48 242.44 51.48"/>
  <polygon points="265.87 55.55 260.21 54.61 256.1 51.89 253.61 47.54 252.77 41.66 253.61 35.41 256.06 30.92 259.99 28.22 265.31 27.32 270.24 28.1 273.97 30.41 276.31 34.2 277.12 39.48 277.12 42.08 260.57 42.08 261.13 46.44 262.46 49.45 264.53 51.2 267.33 51.77 269.75 51.46 271.76 50.6 273.34 49.29 274.46 47.67 275.82 50.14 275.23 52.2 273.4 53.92 270.3 55.1 265.87 55.55 265.87 55.55"/>
  <polygon points="64.29 115.3 69 114.68 72.68 113.08 75.52 110.86 77.65 108.42 78.55 109.73 78.88 111.53 78.07 114.72 75.36 117.8 70.32 120.13 62.57 121.04 51.6 119.14 43.81 113.75 39.16 105.36 37.61 94.5 39.2 83.79 43.9 75.44 51.69 70.01 62.49 68.07 69.74 68.72 74.87 70.5 77.93 73.16 78.95 76.46 78.37 78.94 76.65 80.93 73.81 82.25 69.93 82.73 69.54 79.15 68.22 75.93 65.77 73.58 62 72.69 56.22 74.13 52.43 78.36 50.37 85.22 49.74 94.5 50.51 103.63 53.01 110.13 57.51 114.01 64.29 115.3 64.29 115.3"/>
  <polygon points="101.33 84.78 99.02 85.36 97.52 86.98 96.73 89.44 96.5 92.56 89.19 91.47 86.74 87.74 87.92 84.35 91.12 82.06 95.85 80.78 101.61 80.37 108.25 81.02 112.98 83.12 115.81 86.91 116.76 92.63 116.76 111.03 116.99 113.5 117.72 115.07 119.06 115.9 121.1 116.14 121.38 116.14 121.38 119.98 107.95 119.98 106.44 115.02 105.8 115.02 103.55 117.53 101.29 119.31 98.6 120.35 95.05 120.69 90.59 119.98 87 117.82 84.59 114.15 83.7 108.95 87.74 100.25 99.88 97.18 105.8 96.97 105.8 92.99 105.66 89.67 105.06 87.07 103.71 85.37 101.33 84.78 101.33 84.78"/>
  <polygon points="202.9 85.48 201.46 85.48 200.13 85.66 199.01 86.38 197.93 87.97 196.77 90.73 186.3 120.34 176.78 120.34 164.94 88.93 164.04 87.24 162.85 86.19 161.26 85.64 159.16 85.48 159.16 81.64 181.54 81.64 181.54 85.48 178.51 85.48 176.77 86.06 176.12 87.77 176.34 89.5 176.78 90.94 181.61 104.62 183.15 109.23 184.15 113.39 184.64 111.42 185.28 109.22 185.86 107.26 186.23 106.03 191.13 91.54 191.71 89.55 191.94 87.56 191.15 85.92 189.12 85.48 187.04 85.48 187.04 81.64 202.9 81.64 202.9 85.48 202.9 85.48"/>
  <polygon points="207.87 116.5 209.58 116.34 211.23 115.69 212.5 114.28 213.01 111.81 213.01 89.89 212.5 87.58 211.22 86.24 209.54 85.62 207.87 85.48 207.02 85.48 207.02 81.64 223.97 81.64 223.97 111.81 224.49 114.28 225.75 115.69 227.43 116.34 229.12 116.5 229.97 116.5 229.97 120.34 207.02 120.34 207.02 116.5 207.87 116.5 207.87 116.5"/>
  <polygon points="211.99 69.94 212.47 67.58 213.77 65.97 215.71 65.06 218.12 64.76 220.49 65.06 222.46 65.97 223.82 67.58 224.33 69.94 223.82 72.26 222.46 73.89 220.49 74.84 218.12 75.15 215.71 74.84 213.77 73.89 212.47 72.26 211.99 69.94 211.99 69.94"/>
  <polygon points="264.33 120.34 264.33 96.58 264.03 92.44 263.04 89.39 261.24 87.51 258.55 86.86 255.55 87.77 253.63 90.22 252.59 93.78 252.27 98.03 252.27 111.81 252.64 114.24 253.68 115.67 255.32 116.34 257.49 116.5 257.7 116.5 257.7 120.34 235.53 120.34 235.53 116.5 235.67 116.5 237.93 116.34 239.71 115.65 240.89 114.13 241.31 111.53 241.31 90.17 240.94 87.74 239.88 86.31 238.25 85.64 236.1 85.48 235.88 85.48 235.88 81.64 251.04 81.64 251.99 86.78 252.34 86.78 254.65 83.54 257.24 81.71 260.15 80.9 263.38 80.72 268.38 81.53 272.13 84.03 274.48 88.35 275.29 94.64 275.29 111.39 275.59 114.08 276.49 115.61 278 116.32 280.15 116.5 280.36 116.5 280.36 120.34 264.33 120.34 264.33 120.34"/>
  <polygon points="325.97 100.85 321.19 116.04 307.15 121.04 299.36 119.79 293.49 116.04 289.79 109.73 288.5 100.85 293.28 85.69 307.36 80.72 315.13 81.96 320.98 85.69 324.68 91.98 325.97 100.85 325.97 100.85"/>
  <g id="logo">
    <g id="lettering">
      <polygon points="48.43 982.18 43.84 966.18 20.66 966.18 16.02 982.18 1.63 982.18 23.47 914.69 40.89 914.69 62.82 982.18 48.43 982.18 48.43 982.18"/>
      <polygon points="94.82 971.93 98.75 971.47 102.54 970.32 102.54 980.76 97.65 982.44 91.28 983.1 85.03 982.32 80.02 979.59 76.68 974.35 75.46 966.09 75.46 941.31 68.75 941.31 68.75 935.38 76.47 930.69 80.52 919.84 89.49 919.84 89.49 930.78 101.99 930.78 101.99 941.31 89.49 941.31 89.49 966.09 90.96 970.51 94.82 971.93 94.82 971.93"/>
      <polygon points="130.72 982.18 116.7 982.18 116.7 910.65 130.72 910.65 130.72 982.18 130.72 982.18"/>
      <polygon points="179.04 982.18 176.33 975.2 175.91 975.2 172.88 978.76 169.57 981.22 165.55 982.64 160.37 983.1 154.58 982.12 149.96 979.13 146.9 974.07 145.8 966.83 151.04 954.76 166.72 950.46 174.9 950.18 174.9 946.32 173.06 941.63 167.91 940.12 161.45 941.08 155.13 943.66 150.58 934.37 159.13 930.97 168.97 929.73 183.71 934.23 188.83 947.93 188.83 982.18 179.04 982.18 179.04 982.18"/>
      <polygon points="251.63 982.18 237.61 982.18 237.61 952.16 235.93 943.82 230.58 941.04 225.98 942.14 223.06 945.4 221.52 950.74 221.06 958 221.06 982.18 207.04 982.18 207.04 930.78 217.75 930.78 219.63 937.36 220.41 937.36 223.1 933.96 226.58 931.61 230.58 930.25 234.9 929.82 241.75 930.9 247.03 934.28 250.44 940.14 251.63 948.67 251.63 982.18 251.63 982.18"/>
      <polygon points="290.71 971.93 294.64 971.47 298.43 970.32 298.43 980.76 293.54 982.44 287.17 983.1 280.92 982.32 275.91 979.59 272.57 974.35 271.35 966.09 271.35 941.31 264.64 941.31 264.64 935.38 272.37 930.69 276.41 919.84 285.38 919.84 285.38 930.78 297.88 930.78 297.88 941.31 285.38 941.31 285.38 966.09 286.85 970.51 290.71 971.93 290.71 971.93"/>
      <polygon points="335.17 983.1 325 981.5 317 976.64 311.79 968.46 309.92 956.85 311.63 945.04 316.38 936.6 323.74 931.52 333.28 929.82 342.5 931.36 349.49 935.89 353.9 943.22 355.44 953.17 355.44 959.98 324.08 959.98 325.03 965.29 327.42 969.29 331.14 971.79 336.13 972.67 340.57 972.41 344.64 971.66 348.54 970.39 352.5 968.62 352.5 979.47 348.8 981.1 344.87 982.23 340.41 982.9 335.17 983.1 335.17 983.1"/>
      <polygon points="37.63 1010.55 30.39 1012.13 25.1 1016.68 21.86 1023.9 20.75 1033.44 21.74 1043.01 24.78 1050.06 30.02 1054.43 37.63 1055.92 45.84 1055.01 54.78 1052.38 54.78 1064.34 50.41 1065.9 46 1066.96 41.38 1067.58 36.3 1067.79 22.82 1065.31 13.4 1058.32 7.88 1047.47 6.09 1033.35 8.16 1019.35 14.23 1008.39 24.11 1001.24 37.63 998.68 47.67 999.95 57.31 1003.42 52.71 1015.01 45.12 1011.88 37.63 1010.55 37.63 1010.55"/>
      <polygon points="101.58 1066.87 98.86 1059.88 98.45 1059.88 95.42 1063.44 92.11 1065.9 88.08 1067.33 82.91 1067.79 77.12 1066.8 72.5 1063.81 69.44 1058.75 68.34 1051.51 73.58 1039.44 89.26 1035.14 97.44 1034.87 97.44 1031.01 95.6 1026.32 90.45 1024.8 83.99 1025.77 77.67 1028.34 73.12 1019.05 81.67 1015.65 91.51 1014.41 106.24 1018.91 111.37 1032.62 111.37 1066.87 101.58 1066.87 101.58 1066.87"/>
      <polygon points="143.6 1066.87 129.57 1066.87 129.57 995.33 143.6 995.33 143.6 1066.87 143.6 1066.87"/>
      <polygon points="172.88 1066.87 154.72 1015.47 169.38 1015.47 177.89 1044.75 179.25 1050.2 179.96 1055.28 180.24 1055.28 180.95 1050.11 182.3 1044.75 190.76 1015.47 205.48 1015.47 187.32 1066.87 172.88 1066.87 172.88 1066.87"/>
      <polygon points="216 1002.18 216.6 998.89 218.23 996.78 220.67 995.65 223.63 995.33 226.58 995.65 228.99 996.78 230.65 998.89 231.26 1002.18 230.65 1005.44 228.99 1007.58 226.58 1008.73 223.63 1009.08 220.67 1008.73 218.23 1007.58 216.6 1005.44 216 1002.18 216 1002.18"/>
      <polygon points="230.62 1066.87 216.6 1066.87 216.6 1015.47 230.62 1015.47 230.62 1066.87 230.62 1066.87"/>
      <polygon points="293.7 1066.87 279.68 1066.87 279.68 1036.85 278 1028.5 272.64 1025.72 268.04 1026.82 265.12 1030.09 263.58 1035.42 263.12 1042.68 263.12 1066.87 249.1 1066.87 249.1 1015.47 259.81 1015.47 261.7 1022.04 262.48 1022.04 265.17 1018.64 268.64 1016.29 272.64 1014.94 276.96 1014.5 283.81 1015.58 289.1 1018.96 292.5 1024.82 293.7 1033.35 293.7 1066.87 293.7 1066.87"/>
      <polygon points="356.22 1041.08 354.59 1052.48 349.9 1060.85 342.45 1066.02 332.59 1067.79 323.21 1066.02 315.83 1060.85 310.98 1052.48 309.24 1041.08 310.87 1029.72 315.56 1021.37 322.98 1016.25 332.87 1014.5 342.25 1016.25 349.63 1021.37 354.48 1029.72 356.22 1041.08 356.22 1041.08"/>
    </g>
  </g>
  <polygon points="35.5 456.78 34.83 455.06 34.16 453.34 33.49 451.62 32.82 449.9 32.73 449.9 32.64 449.9 32.55 449.9 32.46 449.9 30.71 451.93 28.93 453.62 27.12 454.97 25.29 455.99 23.3 456.73 21.04 457.26 18.49 457.58 15.66 457.69 12.21 457.43 9.15 456.64 6.47 455.34 4.19 453.52 2.35 451.22 1.05 448.47 0.26 445.29 0 441.66 0.35 437.89 1.41 434.66 3.17 431.95 5.64 429.77 8.81 428.07 12.71 426.8 17.31 425.96 22.64 425.54 24.83 425.47 27.03 425.4 29.23 425.34 31.42 425.27 31.42 424.71 31.42 424.16 31.42 423.61 31.42 423.05 30.93 419.68 29.45 417.28 26.99 415.83 23.54 415.35 20.38 415.58 16.94 416.27 13.24 417.42 9.28 419.02 8.14 416.69 7 414.36 5.85 412.03 4.71 409.69 9.2 407.69 13.92 406.26 18.89 405.41 24.09 405.12 28.88 405.4 33.09 406.23 36.69 407.62 39.71 409.56 42.08 412.07 43.78 415.15 44.8 418.81 45.14 423.05 45.14 431.48 45.14 439.92 45.14 448.35 45.14 456.78 42.73 456.78 40.32 456.78 37.91 456.78 35.5 456.78 35.5 456.78"/>
  <polygon points="86.24 446.68 88.14 446.59 90.23 446.29 92.49 445.79 94.94 445.1 94.94 447.67 94.94 450.24 94.94 452.81 94.94 455.38 92.21 456.39 89.19 457.11 85.87 457.54 82.26 457.69 78.4 457.43 75.1 456.64 72.37 455.33 70.19 453.5 68.54 451.14 67.36 448.26 66.65 444.86 66.41 440.94 66.41 434.83 66.41 428.73 66.41 422.63 66.41 416.53 64.76 416.53 63.11 416.53 61.46 416.53 59.8 416.53 59.8 415.07 59.8 413.61 59.8 412.15 59.8 410.69 61.7 409.54 63.61 408.38 65.51 407.23 67.41 406.07 68.41 403.4 69.4 400.73 70.4 398.06 71.39 395.39 73.6 395.39 75.81 395.39 78.02 395.39 80.22 395.39 80.22 398.08 80.22 400.77 80.22 403.47 80.22 406.16 83.77 406.16 87.31 406.16 90.85 406.16 94.39 406.16 94.39 408.75 94.39 411.35 94.39 413.94 94.39 416.53 90.85 416.53 87.31 416.53 83.77 416.53 80.22 416.53 80.22 422.63 80.22 428.73 80.22 434.83 80.22 440.94 80.33 442.31 80.64 443.49 81.15 444.48 81.88 445.28 82.77 445.89 83.79 446.33 84.95 446.6 86.24 446.68 86.24 446.68"/>
  <polygon points="124.54 456.78 121.09 456.78 117.64 456.78 114.19 456.78 110.73 456.78 110.73 439.17 110.73 421.56 110.73 403.94 110.73 386.33 114.19 386.33 117.64 386.33 121.09 386.33 124.54 386.33 124.54 403.94 124.54 421.56 124.54 439.17 124.54 456.78 124.54 456.78"/>
  <polygon points="176.74 456.78 176.07 455.06 175.4 453.34 174.74 451.62 174.07 449.9 173.98 449.9 173.89 449.9 173.8 449.9 173.71 449.9 171.95 451.93 170.17 453.62 168.36 454.97 166.53 455.99 164.54 456.73 162.28 457.26 159.73 457.58 156.91 457.69 153.46 457.43 150.39 456.64 147.72 455.34 145.43 453.52 143.6 451.22 142.29 448.47 141.5 445.29 141.24 441.66 141.6 437.89 142.65 434.66 144.41 431.95 146.88 429.77 150.06 428.07 153.95 426.8 158.56 425.96 163.88 425.54 166.08 425.47 168.27 425.4 170.47 425.34 172.66 425.27 172.66 424.71 172.66 424.16 172.66 423.61 172.66 423.05 172.17 419.68 170.69 417.28 168.23 415.83 164.79 415.35 161.62 415.58 158.19 416.27 154.49 417.42 150.52 419.02 149.38 416.69 148.24 414.36 147.09 412.03 145.95 409.69 150.44 407.69 155.16 406.26 160.13 405.41 165.33 405.12 170.13 405.4 174.33 406.23 177.94 407.62 180.95 409.56 183.33 412.07 185.02 415.15 186.04 418.81 186.38 423.05 186.38 431.48 186.38 439.92 186.38 448.35 186.38 456.78 183.97 456.78 181.56 456.78 179.15 456.78 176.74 456.78 176.74 456.78"/>
  <polygon points="252.89 456.78 249.43 456.78 245.98 456.78 242.53 456.78 239.08 456.78 239.08 449.39 239.08 442 239.08 434.61 239.08 427.22 238.96 424.65 238.59 422.42 237.98 420.54 237.13 419 236.01 417.8 234.61 416.94 232.91 416.43 230.93 416.26 228.23 416.5 225.94 417.23 224.04 418.44 222.55 420.13 221.42 422.38 220.62 425.27 220.13 428.8 219.97 432.97 219.97 438.92 219.97 444.87 219.97 450.83 219.97 456.78 216.52 456.78 213.07 456.78 209.62 456.78 206.16 456.78 206.16 444.13 206.16 431.47 206.16 418.82 206.16 406.16 208.8 406.16 211.44 406.16 214.07 406.16 216.71 406.16 217.18 407.78 217.64 409.4 218.1 411.02 218.57 412.64 218.76 412.64 218.95 412.64 219.15 412.64 219.34 412.64 220.6 410.92 222.08 409.42 223.78 408.14 225.7 407.09 227.79 406.27 230.03 405.68 232.4 405.33 234.91 405.21 239.06 405.51 242.68 406.41 245.76 407.9 248.31 409.99 250.31 412.64 251.74 415.82 252.6 419.54 252.89 423.77 252.89 432.03 252.89 440.28 252.89 448.53 252.89 456.78 252.89 456.78"/>
  <polygon points="293.99 446.68 295.89 446.59 297.98 446.29 300.24 445.79 302.68 445.1 302.68 447.67 302.68 450.24 302.68 452.81 302.68 455.38 299.96 456.39 296.93 457.11 293.62 457.54 290.01 457.69 286.15 457.43 282.85 456.64 280.11 455.33 277.94 453.5 276.29 451.14 275.11 448.26 274.4 444.86 274.16 440.94 274.16 434.83 274.16 428.73 274.16 422.63 274.16 416.53 272.51 416.53 270.86 416.53 269.2 416.53 267.55 416.53 267.55 415.07 267.55 413.61 267.55 412.15 267.55 410.69 269.45 409.54 271.35 408.38 273.25 407.23 275.16 406.07 276.15 403.4 277.15 400.73 278.14 398.06 279.14 395.39 281.35 395.39 283.56 395.39 285.76 395.39 287.97 395.39 287.97 398.08 287.97 400.77 287.97 403.47 287.97 406.16 291.51 406.16 295.06 406.16 298.6 406.16 302.14 406.16 302.14 408.75 302.14 411.35 302.14 413.94 302.14 416.53 298.6 416.53 295.06 416.53 291.51 416.53 287.97 416.53 287.97 422.63 287.97 428.73 287.97 434.83 287.97 440.94 288.07 442.31 288.38 443.49 288.9 444.48 289.62 445.28 290.51 445.89 291.54 446.33 292.7 446.6 293.99 446.68 293.99 446.68"/>
  <polygon points="341.39 457.69 335.61 457.26 330.5 456 326.06 453.89 322.28 450.94 319.27 447.22 317.12 442.79 315.83 437.66 315.4 431.83 315.8 425.83 316.99 420.56 318.98 416 321.76 412.16 325.25 409.12 329.34 406.95 334.04 405.65 339.35 405.21 344.42 405.59 348.89 406.74 352.77 408.65 356.06 411.32 358.67 414.67 360.54 418.6 361.66 423.12 362.04 428.21 362.04 429.89 362.04 431.56 362.04 433.24 362.04 434.91 353.87 434.91 345.71 434.91 337.55 434.91 329.39 434.91 329.69 437.69 330.38 440.15 331.44 442.29 332.88 444.1 334.67 445.55 336.79 446.58 339.25 447.2 342.02 447.41 344.28 447.35 346.47 447.17 348.6 446.87 350.67 446.46 352.73 445.91 354.84 445.23 356.99 444.4 359.18 443.43 359.18 446.1 359.18 448.77 359.18 451.44 359.18 454.11 357.34 454.96 355.44 455.69 353.47 456.3 351.44 456.8 349.27 457.19 346.87 457.47 344.24 457.63 341.39 457.69 341.39 457.69"/>
  <polygon points="26.49 550.93 16.15 549.3 8.76 544.44 4.33 536.33 2.85 524.98 3.25 518.91 4.46 513.6 6.47 509.05 9.28 505.27 12.84 502.29 17.1 500.16 22.06 498.88 27.71 498.45 31.99 498.67 36.04 499.31 39.87 500.39 43.46 501.89 42.45 504.56 41.43 507.24 40.41 509.91 39.39 512.58 37.79 511.95 36.24 511.38 34.75 510.88 33.32 510.43 31.92 510.06 30.52 509.8 29.11 509.64 27.71 509.59 22.99 510.55 19.63 513.42 17.61 518.2 16.93 524.89 17.61 531.39 19.63 536.03 22.99 538.82 27.71 539.74 29.66 539.68 31.55 539.48 33.35 539.14 35.09 538.68 36.79 538.07 38.48 537.32 40.18 536.41 41.88 535.35 41.88 538.31 41.88 541.26 41.88 544.21 41.88 547.17 40.2 548.15 38.51 548.97 36.82 549.62 35.11 550.11 33.29 550.47 31.25 550.72 28.98 550.88 26.49 550.93 26.49 550.93"/>
  <polygon points="91.31 550.02 90.65 548.3 89.98 546.58 89.31 544.86 88.64 543.14 88.55 543.14 88.46 543.14 88.37 543.14 88.28 543.14 86.53 545.17 84.74 546.86 82.94 548.21 81.11 549.23 79.12 549.97 76.86 550.5 74.31 550.82 71.48 550.93 68.03 550.67 64.97 549.88 62.3 548.58 60.01 546.76 58.17 544.46 56.87 541.71 56.08 538.53 55.82 534.9 56.17 531.13 57.23 527.9 58.99 525.19 61.46 523.01 64.63 521.32 68.52 520.04 73.13 519.2 78.46 518.78 80.65 518.71 82.85 518.64 85.04 518.58 87.24 518.51 87.24 517.95 87.24 517.4 87.24 516.85 87.24 516.29 86.75 512.92 85.27 510.52 82.81 509.07 79.36 508.59 76.2 508.82 72.76 509.51 69.06 510.66 65.1 512.26 63.96 509.93 62.81 507.6 61.67 505.27 60.53 502.93 65.02 500.93 69.74 499.5 74.7 498.65 79.91 498.36 84.7 498.64 88.9 499.47 92.51 500.86 95.53 502.8 97.9 505.31 99.6 508.39 100.62 512.05 100.96 516.29 100.96 524.72 100.96 533.16 100.96 541.59 100.96 550.02 98.55 550.02 96.14 550.02 93.73 550.02 91.31 550.02 91.31 550.02"/>
  <polygon points="134.55 550.02 131.09 550.02 127.64 550.02 124.19 550.02 120.74 550.02 120.74 532.41 120.74 514.8 120.74 497.18 120.74 479.57 124.19 479.57 127.64 479.57 131.09 479.57 134.55 479.57 134.55 497.18 134.55 514.8 134.55 532.41 134.55 550.02 134.55 550.02"/>
  <polygon points="166.64 550.02 161.82 537.37 157 524.71 152.18 512.06 147.35 499.4 150.97 499.4 154.58 499.4 158.19 499.4 161.8 499.4 164.24 506.61 166.69 513.82 169.13 521.03 171.58 528.24 172.26 530.66 172.81 533.19 173.23 535.84 173.52 538.61 173.62 538.61 173.71 538.61 173.8 538.61 173.89 538.61 174.12 536.04 174.53 533.46 175.13 530.86 175.92 528.24 178.36 521.03 180.79 513.82 183.22 506.61 185.66 499.4 189.27 499.4 192.88 499.4 196.49 499.4 200.1 499.4 195.28 512.06 190.46 524.71 185.63 537.37 180.81 550.02 177.27 550.02 173.73 550.02 170.19 550.02 166.64 550.02 166.64 550.02"/>
  <polygon points="212.32 486.32 212.79 483.37 214.2 481.26 216.55 479.99 219.84 479.57 223.12 479.99 225.47 481.26 226.88 483.37 227.35 486.32 227.23 487.84 226.88 489.18 226.29 490.34 225.47 491.32 224.41 492.1 223.12 492.66 221.6 493 219.84 493.11 216.55 492.69 214.2 491.41 212.79 489.29 212.32 486.32 212.32 486.32"/>
  <polygon points="226.72 550.02 223.27 550.02 219.81 550.02 216.36 550.02 212.91 550.02 212.91 537.37 212.91 524.71 212.91 512.06 212.91 499.4 216.36 499.4 219.81 499.4 223.27 499.4 226.72 499.4 226.72 512.06 226.72 524.71 226.72 537.37 226.72 550.02 226.72 550.02"/>
  <polygon points="293.49 550.02 290.04 550.02 286.59 550.02 283.14 550.02 279.68 550.02 279.68 542.63 279.68 535.24 279.68 527.85 279.68 520.46 279.56 517.89 279.2 515.66 278.59 513.78 277.74 512.24 276.62 511.04 275.21 510.18 273.52 509.67 271.53 509.5 268.84 509.74 266.54 510.47 264.65 511.68 263.16 513.37 262.03 515.62 261.22 518.51 260.74 522.04 260.58 526.21 260.58 532.16 260.58 538.11 260.58 544.07 260.58 550.02 257.13 550.02 253.67 550.02 250.22 550.02 246.77 550.02 246.77 537.37 246.77 524.71 246.77 512.06 246.77 499.4 249.41 499.4 252.04 499.4 254.68 499.4 257.32 499.4 257.78 501.02 258.25 502.64 258.71 504.26 259.17 505.88 259.37 505.88 259.56 505.88 259.75 505.88 259.94 505.88 261.21 504.15 262.69 502.66 264.39 501.38 266.31 500.33 268.4 499.51 270.63 498.92 273.01 498.57 275.52 498.45 279.67 498.75 283.28 499.65 286.37 501.14 288.92 503.23 290.92 505.88 292.35 509.06 293.21 512.77 293.49 517.01 293.49 525.27 293.49 533.52 293.49 541.77 293.49 550.02 293.49 550.02"/>
  <polygon points="359.27 524.62 358.87 530.46 357.64 535.63 355.61 540.13 352.75 543.95 349.17 547 344.95 549.18 340.1 550.49 334.6 550.93 331.06 550.73 327.74 550.13 324.63 549.13 321.74 547.73 319.12 545.96 316.82 543.85 314.84 541.38 313.18 538.57 311.88 535.45 310.94 532.09 310.38 528.48 310.19 524.62 310.6 518.76 311.81 513.6 313.84 509.12 316.67 505.33 320.23 502.32 324.46 500.17 329.33 498.88 334.87 498.45 338.41 498.65 341.73 499.24 344.84 500.24 347.73 501.62 350.35 503.38 352.65 505.48 354.63 507.93 356.28 510.72 357.59 513.82 358.53 517.16 359.09 520.76 359.27 524.62 359.27 524.62"/>
  <text class="cls-1" transform="translate(634.88 455.09)">atlante<tspan x="-5.33" y="102.04">calvino</tspan></text>
</svg>
