<svg id="calogo" xmlns="http://www.w3.org/2000/svg" viewBox="0 0 500 500">
  <title>lettering2</title>
  <path d="M103.71,231.3L101,224.42h-0.36a20.4,20.4,0,0,1-7.18,6.09,23.2,23.2,0,0,1-9.62,1.7q-7.29,0-11.48-4.17t-4.19-11.86q0-8.06,5.64-11.88t17-4.23l8.78-.27v-2.22q0-7.7-7.88-7.7-6.07,0-14.26,3.67l-4.57-9.33a41.15,41.15,0,0,1,19.38-4.57q10.19,0,15.62,4.44t5.43,13.49V231.3h-9.64Z"/>
  <path d="M154.45,221.2a29.92,29.92,0,0,0,8.69-1.58V229.9a31,31,0,0,1-12.68,2.31q-8.29,0-12.07-4.19t-3.78-12.56v-24.4H128v-5.84l7.61-4.62,4-10.68h8.83v10.78H162.6v10.37H148.43v24.4a5.39,5.39,0,0,0,1.65,4.35A6.52,6.52,0,0,0,154.45,221.2Z"/>
  <rect x="178.94" y="160.85" width="13.81" height="70.45"/>
  <path d="M244.95,231.3l-2.67-6.88h-0.36a20.4,20.4,0,0,1-7.18,6.09,23.2,23.2,0,0,1-9.62,1.7q-7.29,0-11.48-4.17t-4.19-11.86q0-8.06,5.64-11.88t17-4.23l8.78-.27v-2.22q0-7.7-7.88-7.7-6.07,0-14.26,3.67l-4.57-9.33a41.15,41.15,0,0,1,19.38-4.57q10.19,0,15.62,4.44t5.43,13.49V231.3h-9.64Z"/>
  <path d="M321.1,231.3H307.29V201.74q0-5.48-1.95-8.22t-6.2-2.74q-5.8,0-8.38,3.87t-2.58,12.84V231.3H274.37V180.68h10.55l1.86,6.47h0.77a14.6,14.6,0,0,1,6.36-5.55,21.67,21.67,0,0,1,9.21-1.88q8.83,0,13.4,4.78t4.57,13.79v33Z"/>
  <path d="M362.2,221.2a29.92,29.92,0,0,0,8.69-1.58V229.9a31,31,0,0,1-12.68,2.31q-8.29,0-12.07-4.19t-3.78-12.56v-24.4h-6.61v-5.84l7.61-4.62,4-10.68h8.83v10.78h14.17v10.37H356.18v24.4a5.39,5.39,0,0,0,1.65,4.35A6.52,6.52,0,0,0,362.2,221.2Z"/>
  <path d="M409.6,232.21q-12.22,0-19.11-6.75t-6.88-19.11q0-12.72,6.36-19.67t17.59-6.95q10.73,0,16.71,6.11t6,16.89v6.7H397.6q0.23,5.89,3.49,9.19t9.15,3.31a38,38,0,0,0,8.65-1,43.28,43.28,0,0,0,8.51-3v10.68a32.44,32.44,0,0,1-7.74,2.69A48.83,48.83,0,0,1,409.6,232.21Z"/>
  <path d="M94.7,325.45q-23.63,0-23.63-25.94,0-12.9,6.43-19.72T95.92,273a35.13,35.13,0,0,1,15.76,3.44L107.6,287.1q-3.26-1.31-6.07-2.15a19.56,19.56,0,0,0-5.61-.84q-10.78,0-10.78,15.3,0,14.85,10.78,14.85a24.56,24.56,0,0,0,7.38-1.06,26.65,26.65,0,0,0,6.79-3.33v11.82a22.23,22.23,0,0,1-6.77,2.94A38.07,38.07,0,0,1,94.7,325.45Z"/>
  <path d="M159.53,324.54l-2.67-6.88h-0.36a20.4,20.4,0,0,1-7.18,6.09,23.19,23.19,0,0,1-9.62,1.7q-7.29,0-11.48-4.17T124,309.42q0-8.06,5.64-11.88t17-4.23l8.78-.27v-2.22q0-7.7-7.88-7.7-6.07,0-14.26,3.67l-4.57-9.33a41.15,41.15,0,0,1,19.38-4.57q10.19,0,15.62,4.44t5.43,13.49v33.73h-9.64Z"/>
  <rect x="188.95" y="254.09" width="13.81" height="70.45"/>
  <path d="M234.85,324.54l-19.29-50.62H230l9.78,28.84a46.54,46.54,0,0,1,1.95,10.37h0.36a38.94,38.94,0,0,1,2-10.37l9.73-28.84h14.44L249,324.54H234.85Z"/>
  <path d="M280.53,260.84q0-6.75,7.52-6.75t7.52,6.75a6.58,6.58,0,0,1-1.88,5q-1.88,1.79-5.64,1.79Q280.53,267.63,280.53,260.84Z"/>
  <rect x="281.12" y="273.92" width="13.81" height="50.62"/>
  <path d="M361.7,324.54H347.89V295q0-5.48-1.95-8.22t-6.2-2.74q-5.8,0-8.38,3.87t-2.58,12.84v23.81H315V273.92h10.55l1.86,6.47h0.77a14.6,14.6,0,0,1,6.36-5.55,21.67,21.67,0,0,1,9.21-1.88q8.83,0,13.4,4.78t4.57,13.79v33Z"/>
  <path d="M427.48,299.14q0,12.36-6.52,19.33t-18.16,7A25.39,25.39,0,0,1,390,322.25a21.23,21.23,0,0,1-8.56-9.17,30.81,30.81,0,0,1-3-13.95q0-12.4,6.47-19.29t18.2-6.88a25.55,25.55,0,0,1,12.86,3.17,21.16,21.16,0,0,1,8.56,9.1A30.52,30.52,0,0,1,427.48,299.14Z"/>
</svg>
