<svg id="calogo" xmlns="http://www.w3.org/2000/svg" viewBox="0 0 500 500">
  <title>lettering-noto-ver3</title>
  <g id="logo">
    <g id="lettering">
      <polygon points="111.6 237.4 108.1 226 90.7 226 87.2 237.4 76.3 237.4 93.2 189.4 105.6 189.4 122.5 237.4 111.6 237.4 111.6 237.4"/>
      <polygon points="105.7 217.5 100.3 200 99.4 196.8 93.2 217.5 105.7 217.5 105.7 217.5"/>
      <polygon points="152.7 237.4 142.6 237.4 142.6 198 129.6 198 129.6 189.6 165.7 189.6 165.7 198 152.7 198 152.7 237.4 152.7 237.4"/>
      <polygon points="181.1 237.4 181.1 189.6 191.2 189.6 191.2 229 210.6 229 210.6 237.4 181.1 237.4 181.1 237.4"/>
      <polygon points="256.2 237.4 252.7 226 235.3 226 231.8 237.4 220.9 237.4 237.8 189.4 250.2 189.4 267.1 237.4 256.2 237.4 256.2 237.4"/>
      <polygon points="250.3 217.5 244.9 200 244 196.8 237.8 217.5 250.3 217.5 250.3 217.5"/>
      <polygon points="323.5 237.4 310.7 237.4 289.9 201.2 289.6 201.2 290.2 214.9 290.2 237.4 281.1 237.4 281.1 189.6 293.9 189.6 314.7 225.4 314.9 225.4 314.4 212.2 314.4 189.6 323.5 189.6 323.5 237.4 323.5 237.4"/>
      <polygon points="362 237.4 351.9 237.4 351.9 198 338.9 198 338.9 189.6 375 189.6 375 198 362 198 362 237.4 362 237.4"/>
      <polygon points="417.9 237.4 390.4 237.4 390.4 189.6 417.9 189.6 417.9 197.9 400.5 197.9 400.5 208.4 416.7 208.4 416.7 216.7 400.5 216.7 400.5 229 417.9 229 417.9 237.4 417.9 237.4"/>
      <polygon points="99.7 259.6 94.6 260.7 90.8 263.9 88.4 269.1 87.7 275.9 88.3 282.4 90.7 287.9 94.4 290.9 99.7 291.9 105.2 291.2 111.9 289.4 111.9 297.9 105.6 299.7 98.7 300.3 94.3 300 89.5 298.7 85.8 296.8 82.8 294 80.3 290.5 78.6 286.3 77.6 281.4 77.2 275.8 77.9 268.8 79.9 262.8 83.3 257.8 87.7 254.2 93.3 251.9 99.7 251.2 106.6 252 113.7 254.6 110.4 262.8 107.7 261.6 105 260.6 102.3 259.9 99.7 259.6 99.7 259.6"/>
      <polygon points="159.3 299.7 155.8 288.3 138.4 288.3 135 299.7 124 299.7 140.9 251.7 153.3 251.7 170.2 299.7 159.3 299.7 159.3 299.7"/>
      <polygon points="153.4 279.8 148 262.3 147.2 259.1 141 279.8 153.4 279.8 153.4 279.8"/>
      <polygon points="184.3 299.7 184.3 251.9 194.4 251.9 194.4 291.3 213.8 291.3 213.8 299.7 184.3 299.7 184.3 299.7"/>
      <polygon points="256.7 251.9 267 251.9 250.7 299.7 239.7 299.7 223.5 251.9 233.7 251.9 242.7 280.3 244.2 286.2 245.2 290.8 247.7 280.3 256.7 251.9 256.7 251.9"/>
      <polygon points="298.9 299.7 277.2 299.7 277.2 293.9 283 291.2 283 260.3 277.2 257.6 277.2 251.9 298.9 251.9 298.9 257.6 293.1 260.3 293.1 291.2 298.9 293.9 298.9 299.7 298.9 299.7"/>
      <polygon points="357.5 299.7 344.6 299.7 323.8 263.5 323.6 263.5 324.2 277.2 324.2 299.7 315.1 299.7 315.1 251.9 327.9 251.9 348.7 287.7 348.9 287.7 348.4 274.5 348.4 251.9 357.5 251.9 357.5 299.7 357.5 299.7"/>
      <polygon points="421 275.7 419.5 286.2 415.1 293.9 407.9 298.7 398.2 300.3 388.5 298.7 381.3 293.9 376.9 286.2 375.5 275.6 376.9 265.1 381.4 257.4 388.5 252.7 398.3 251.1 408 252.7 415.1 257.5 419.5 265.2 421 275.7 421 275.7"/>
      <polygon points="386.1 275.7 386.8 282.7 389.1 287.8 392.9 290.8 398.2 291.8 403.5 290.8 407.3 287.8 409.7 282.2 410.3 275.7 409.7 269 407.3 263.6 398.3 259.6 393 260.6 389.2 263.6 386.8 268.7 386.1 275.7 386.1 275.7"/>
    </g>
  </g>
</svg>
